<svg width="29" height="37" viewBox="0 0 29 37" fill="none" xmlns="http://www.w3.org/2000/svg">
<path d="M21.75 12.9131H24.1667C24.4871 12.9131 24.7945 13.0714 25.0211 13.3533C25.2477 13.6351 25.375 14.0174 25.375 14.416V32.4506C25.375 32.8492 25.2477 33.2315 25.0211 33.5133C24.7945 33.7952 24.4871 33.9535 24.1667 33.9535H4.83333C4.51286 33.9535 4.20552 33.7952 3.97891 33.5133C3.75231 33.2315 3.625 32.8492 3.625 32.4506V14.416C3.625 14.0174 3.75231 13.6351 3.97891 13.3533C4.20552 13.0714 4.51286 12.9131 4.83333 12.9131H7.25V11.4102C7.25 9.01868 8.01384 6.72509 9.37348 5.03402C10.7331 3.34295 12.5772 2.39291 14.5 2.39291C16.4228 2.39291 18.2669 3.34295 19.6265 5.03402C20.9862 6.72509 21.75 9.01868 21.75 11.4102V12.9131ZM19.3333 12.9131V11.4102C19.3333 9.81586 18.8241 8.2868 17.9177 7.15942C17.0113 6.03204 15.7819 5.39868 14.5 5.39868C13.2181 5.39868 11.9887 6.03204 11.0823 7.15942C10.1759 8.2868 9.66667 9.81586 9.66667 11.4102V12.9131H19.3333ZM13.2917 21.9304V24.9362H15.7083V21.9304H13.2917ZM8.45833 21.9304V24.9362H10.875V21.9304H8.45833ZM18.125 21.9304V24.9362H20.5417V21.9304H18.125Z" fill="#4D54FF"/>
</svg>
