<svg width="29" height="32" viewBox="0 0 29 32" fill="none" xmlns="http://www.w3.org/2000/svg">
<path d="M14.5 6.36209C16.3737 6.36209 17.9387 4.81977 18.125 2.89216C18.142 2.71268 17.9551 2.5332 17.7852 2.5332C17.6933 2.5333 17.6022 2.55156 17.5167 2.58705C17.5054 2.59183 16.3216 3.07164 14.5 3.07164C12.6785 3.07164 11.4924 2.59303 11.4833 2.58705C11.3868 2.55158 11.2853 2.53338 11.1831 2.5332H11.1797C11.1374 2.53557 11.0959 2.54675 11.0577 2.56608C11.0194 2.58542 10.9852 2.61254 10.9568 2.64588C10.9285 2.67923 10.9067 2.71815 10.8927 2.76041C10.8787 2.80267 10.8726 2.84744 10.875 2.89216C11.0648 4.81618 12.6309 6.36209 14.5 6.36209Z" fill="#4D54FF"/>
<path d="M27.4872 5.99715L20.1641 3.28941C20.1327 3.27785 20.0994 3.27372 20.0663 3.2773C20.0333 3.28088 20.0014 3.29208 19.9729 3.31012C19.9445 3.32815 19.9201 3.35258 19.9015 3.38167C19.883 3.41076 19.8707 3.44381 19.8656 3.47846C19.6537 4.81921 18.9985 6.03713 18.0165 6.91562C17.0344 7.79411 15.7892 8.27622 14.5023 8.27622C13.2154 8.27622 11.9702 7.79411 10.9881 6.91562C10.0061 6.03713 9.35086 4.81921 9.13898 3.47846C9.13402 3.44323 9.12166 3.40961 9.10283 3.38007C9.08399 3.35052 9.05915 3.32579 9.03012 3.30767C9.00108 3.28956 8.96858 3.27852 8.93499 3.27536C8.9014 3.2722 8.86757 3.277 8.83596 3.28941L1.51289 5.99715C1.30792 6.07294 1.13553 6.22395 1.02711 6.42269C0.918681 6.62143 0.881427 6.85469 0.922126 7.08L1.86406 12.3447C1.90031 12.5454 1.99639 12.7285 2.13825 12.8674C2.28011 13.0063 2.46031 13.0935 2.6525 13.1165L5.42109 13.4467C5.53411 13.4602 5.6382 13.518 5.7127 13.6088C5.7872 13.6996 5.82666 13.8166 5.82324 13.9367L5.40807 28.3489C5.40256 28.5346 5.44837 28.718 5.53989 28.8767C5.63142 29.0355 5.76471 29.1626 5.9235 29.2427C6.05548 29.3057 6.19894 29.3373 6.34377 29.3354H22.6563C22.8011 29.3373 22.9446 29.3057 23.0765 29.2427C23.2353 29.1626 23.3686 29.0355 23.4601 28.8767C23.5517 28.718 23.5975 28.5346 23.592 28.3489L23.1768 13.9367C23.1734 13.8166 23.2128 13.6996 23.2873 13.6088C23.3618 13.518 23.4659 13.4602 23.579 13.4467L26.3475 13.1165C26.5397 13.0935 26.7199 13.0063 26.8618 12.8674C27.0037 12.7285 27.0997 12.5454 27.136 12.3447L28.0779 7.08C28.1186 6.85469 28.0814 6.62143 27.9729 6.42269C27.8645 6.22395 27.6921 6.07294 27.4872 5.99715Z" fill="#4D54FF"/>
</svg>
