<svg width="25" height="29" viewBox="0 0 25 29" fill="none" xmlns="http://www.w3.org/2000/svg">
<rect width="24.1379" height="28.3019" transform="translate(0.0689697 0.6604)" fill="#4D54FF"/>
<path d="M22.38 14.6179L12.6706 3.24185C12.6007 3.15972 12.5177 3.09456 12.4263 3.0501C12.3349 3.00564 12.2369 2.98276 12.1379 2.98276C12.0389 2.98276 11.941 3.00564 11.8495 3.0501C11.7581 3.09456 11.6751 3.15972 11.6052 3.24185L1.89579 14.6179C1.61293 14.9495 1.45264 15.4 1.45264 15.8699C1.45264 16.8455 2.12916 17.6388 2.96126 17.6388H3.98429V25.7562C3.98429 26.2454 4.32137 26.6407 4.7386 26.6407H10.6293V20.4496H13.2694V26.6407H19.5372C19.9545 26.6407 20.2915 26.2454 20.2915 25.7562V17.6388H21.3146C21.7153 17.6388 22.0995 17.4536 22.3824 17.1192C22.9693 16.4282 22.9693 15.3088 22.38 14.6179V14.6179Z" fill="#B4B7F9"/>
</svg>
