<svg width="25" height="29" viewBox="0 0 25 29" fill="none" xmlns="http://www.w3.org/2000/svg">
<rect width="24.1379" height="28.3019" transform="translate(0 0.6604)" fill="#4D54FF"/>
<path d="M12.0689 5.967C13.6285 5.967 14.9311 4.54195 15.0862 2.76092C15.1003 2.59509 14.9447 2.42926 14.8033 2.42926C14.7268 2.42935 14.651 2.44622 14.5798 2.47901C14.5704 2.48343 13.5851 2.92675 12.0689 2.92675C10.5528 2.92675 9.56556 2.48454 9.55802 2.47901C9.47767 2.44624 9.39322 2.42942 9.30815 2.42926H9.30533C9.27008 2.43145 9.23555 2.44177 9.20372 2.45964C9.17188 2.4775 9.14336 2.50256 9.1198 2.53337C9.09624 2.56418 9.07809 2.60014 9.06641 2.63919C9.05472 2.67824 9.04972 2.7196 9.05169 2.76092C9.20962 4.53864 10.5132 5.967 12.0689 5.967Z" fill="#4D54FF"/>
<path d="M22.8787 5.6298L16.7834 3.12796C16.7573 3.11728 16.7295 3.11346 16.702 3.11677C16.6746 3.12008 16.648 3.13043 16.6243 3.14709C16.6006 3.16376 16.5803 3.18633 16.5649 3.21321C16.5494 3.24009 16.5392 3.27062 16.535 3.30264C16.3586 4.54143 15.8132 5.66674 14.9958 6.47843C14.1785 7.29012 13.142 7.73557 12.0709 7.73557C10.9997 7.73557 9.96327 7.29012 9.14587 6.47843C8.32848 5.66674 7.78311 4.54143 7.60676 3.30264C7.60262 3.27008 7.59234 3.23902 7.57666 3.21172C7.56099 3.18442 7.54031 3.16157 7.51614 3.14483C7.49197 3.1281 7.46492 3.1179 7.43697 3.11498C7.40901 3.11206 7.38084 3.11649 7.35453 3.12796L1.25923 5.6298C1.08863 5.69983 0.945145 5.83935 0.854897 6.02298C0.76465 6.20661 0.733642 6.42214 0.767517 6.63032L1.55153 11.4947C1.5817 11.6801 1.66167 11.8493 1.77975 11.9776C1.89783 12.1059 2.04781 12.1866 2.20778 12.2078L4.5122 12.5129C4.60627 12.5253 4.69291 12.5788 4.75492 12.6627C4.81692 12.7465 4.84977 12.8547 4.84692 12.9656L4.50136 26.2819C4.49677 26.4535 4.5349 26.623 4.61108 26.7696C4.68726 26.9163 4.79821 27.0338 4.93037 27.1077C5.04023 27.1659 5.15964 27.1952 5.28018 27.1934H18.8578C18.9783 27.1952 19.0977 27.1659 19.2076 27.1077C19.3397 27.0338 19.4507 26.9163 19.5269 26.7696C19.6031 26.623 19.6412 26.4535 19.6366 26.2819L19.291 12.9656C19.2882 12.8547 19.321 12.7465 19.383 12.6627C19.445 12.5788 19.5317 12.5253 19.6258 12.5129L21.9302 12.2078C22.0901 12.1866 22.2401 12.1059 22.3582 11.9776C22.4763 11.8493 22.5563 11.6801 22.5864 11.4947L23.3704 6.63032C23.4043 6.42214 23.3733 6.20661 23.2831 6.02298C23.1928 5.83935 23.0493 5.69983 22.8787 5.6298V5.6298Z" fill="#4D54FF"/>
<path d="M22.8787 5.6298L16.7834 3.12796C16.7573 3.11728 16.7295 3.11346 16.702 3.11677C16.6746 3.12008 16.648 3.13043 16.6243 3.14709C16.6006 3.16376 16.5803 3.18633 16.5649 3.21321C16.5494 3.24009 16.5392 3.27062 16.535 3.30264C16.3586 4.54143 15.8132 5.66674 14.9958 6.47843C14.1785 7.29012 13.142 7.73557 12.0709 7.73557C10.9997 7.73557 9.96327 7.29012 9.14587 6.47843C8.32848 5.66674 7.78311 4.54143 7.60676 3.30264C7.60262 3.27008 7.59234 3.23902 7.57666 3.21172C7.56099 3.18442 7.54031 3.16157 7.51614 3.14483C7.49197 3.1281 7.46492 3.1179 7.43697 3.11498C7.40901 3.11206 7.38084 3.11649 7.35453 3.12796L1.25923 5.6298C1.08863 5.69983 0.945145 5.83935 0.854897 6.02298C0.76465 6.20661 0.733642 6.42214 0.767517 6.63032L1.55153 11.4947C1.5817 11.6801 1.66167 11.8493 1.77975 11.9776C1.89783 12.1059 2.04781 12.1866 2.20778 12.2078L4.5122 12.5129C4.60627 12.5253 4.69291 12.5788 4.75492 12.6627C4.81692 12.7465 4.84977 12.8547 4.84692 12.9656L4.50136 26.2819C4.49677 26.4535 4.5349 26.623 4.61108 26.7696C4.68726 26.9163 4.79821 27.0338 4.93037 27.1077C5.04023 27.1659 5.15964 27.1952 5.28018 27.1934H18.8578C18.9783 27.1952 19.0977 27.1659 19.2076 27.1077C19.3397 27.0338 19.4507 26.9163 19.5269 26.7696C19.6031 26.623 19.6412 26.4535 19.6366 26.2819L19.291 12.9656C19.2882 12.8547 19.321 12.7465 19.383 12.6627C19.445 12.5788 19.5317 12.5253 19.6258 12.5129L21.9302 12.2078C22.0901 12.1866 22.2401 12.1059 22.3582 11.9776C22.4763 11.8493 22.5563 11.6801 22.5864 11.4947L23.3704 6.63032C23.4043 6.42214 23.3733 6.20661 23.2831 6.02298C23.1928 5.83935 23.0493 5.69983 22.8787 5.6298V5.6298Z" fill="white"/>
</svg>
