<svg width="29" height="33" viewBox="0 0 29 33" fill="none" xmlns="http://www.w3.org/2000/svg">
<path d="M28.1504 17.5112L18.6348 27.999C17.7852 28.9354 16.3125 28.2799 16.3125 26.9378V20.9447H8.60938C7.85605 20.9447 7.25 20.2767 7.25 19.4465V13.4534C7.25 12.6231 7.85605 11.9552 8.60938 11.9552H16.3125V5.96211C16.3125 4.62616 17.7795 3.96443 18.6348 4.90084L28.1504 15.3887C28.6771 15.9755 28.6771 16.9244 28.1504 17.5112ZM10.875 27.6869V25.1898C10.875 24.7778 10.5691 24.4407 10.1953 24.4407H5.4375C4.43496 24.4407 3.625 23.5479 3.625 22.443V10.4569C3.625 9.35193 4.43496 8.45921 5.4375 8.45921H10.1953C10.5691 8.45921 10.875 8.1221 10.875 7.71008V5.21298C10.875 4.80096 10.5691 4.46385 10.1953 4.46385H5.4375C2.43555 4.46385 0 7.14824 0 10.4569V22.443C0 25.7516 2.43555 28.436 5.4375 28.436H10.1953C10.5691 28.436 10.875 28.0989 10.875 27.6869Z" fill="#4D54FF"/>
</svg>
