<svg width="29" height="34" viewBox="0 0 29 34" fill="none" xmlns="http://www.w3.org/2000/svg">
<g clip-path="url(#clip0_40_208)">
<path d="M10.15 16.9796C13.3536 16.9796 15.95 13.2659 15.95 8.68371C15.95 4.10151 13.3536 0.387787 10.15 0.387787C6.94641 0.387787 4.35 4.10151 4.35 8.68371C4.35 13.2659 6.94641 16.9796 10.15 16.9796ZM14.21 19.0536H13.4533C12.4473 19.7147 11.3281 20.0906 10.15 20.0906C8.97188 20.0906 7.85719 19.7147 6.84672 19.0536H6.09C2.72781 19.0536 0 22.9553 0 27.7643V30.4605C0 32.178 0.974219 33.5715 2.175 33.5715H14.6314C14.5227 33.1308 14.4773 32.6641 14.5136 32.191L14.8217 28.2439L14.8761 27.5245L15.2341 27.0125L18.7367 22.0026C17.6266 20.2073 16.018 19.0536 14.21 19.0536ZM16.2627 28.4708L15.9545 32.4243C15.9047 33.0854 16.2944 33.6428 16.752 33.565L19.5116 33.1243L25.7602 24.1867L22.5112 19.5397L16.2627 28.4708ZM28.6828 17.8157L26.9655 15.3593C26.5441 14.7566 25.8553 14.7566 25.4339 15.3593L23.7211 17.8092L23.5353 18.0749L26.7888 22.722L28.6828 20.0128C29.1042 19.4036 29.1042 18.4249 28.6828 17.8157Z" fill="#4D54FF"/>
</g>
<defs>
<clipPath id="clip0_40_208">
<rect width="29" height="33.1837" fill="white" transform="translate(0 0.387787)"/>
</clipPath>
</defs>
</svg>
